<svg width="15" height="16" viewBox="0 0 15 16" fill="none" xmlns="http://www.w3.org/2000/svg">
<g clip-path="url(#clip0_79_4643)">
<path d="M8.91609 9.6144C8.91609 9.6144 9.02769 9.50279 9.25091 9.27958C9.47412 9.05636 9.58573 8.62928 9.58573 7.99833C9.58573 7.36737 9.36251 6.82868 8.91609 6.38225C8.46966 5.93583 7.93097 5.71261 7.30001 5.71261C6.66906 5.71261 6.13037 5.93583 5.68394 6.38225C5.23751 6.82868 5.0143 7.36737 5.0143 7.99833C5.0143 8.62928 5.23751 9.16797 5.68394 9.6144C6.13037 10.0608 6.66906 10.284 7.30001 10.284C7.93097 10.284 8.46966 10.0608 8.91609 9.6144ZM9.79109 5.50725C9.79109 5.50725 9.96222 5.67838 10.3045 6.02065C10.6467 6.36291 10.8179 7.02214 10.8179 7.99833C10.8179 8.97452 10.4756 9.80487 9.79109 10.4894C9.10656 11.1739 8.2762 11.5162 7.30001 11.5162C6.32382 11.5162 5.49347 11.1739 4.80894 10.4894C4.12442 9.80487 3.78216 8.97452 3.78216 7.99833C3.78216 7.02214 4.12442 6.19178 4.80894 5.50725C5.49347 4.82273 6.32382 4.48047 7.30001 4.48047C8.2762 4.48047 9.10656 4.82273 9.79109 5.50725ZM11.5411 3.75725C11.5411 3.75725 11.5813 3.79743 11.6616 3.87779C11.742 3.95815 11.7822 4.11142 11.7822 4.33761C11.7822 4.5638 11.7018 4.75725 11.5411 4.91797C11.3804 5.07868 11.1869 5.15904 10.9607 5.15904C10.7345 5.15904 10.5411 5.07868 10.3804 4.91797C10.2197 4.75725 10.1393 4.5638 10.1393 4.33761C10.1393 4.11142 10.2197 3.91797 10.3804 3.75725C10.5411 3.59654 10.7345 3.51618 10.9607 3.51618C11.1869 3.51618 11.3804 3.59654 11.5411 3.75725ZM7.98305 2.36886C7.98305 2.36886 7.87963 2.36961 7.67278 2.37109C7.46594 2.37258 7.34168 2.37333 7.30001 2.37333C7.25835 2.37333 7.03067 2.37184 6.61698 2.36886C6.20329 2.36588 5.8893 2.36588 5.67501 2.36886C5.46073 2.37184 5.17353 2.38077 4.81341 2.39565C4.45329 2.41053 4.14674 2.44029 3.89376 2.48493C3.64079 2.52958 3.42799 2.58463 3.25537 2.65011C2.95775 2.76916 2.69585 2.94178 2.46966 3.16797C2.24347 3.39416 2.07085 3.65606 1.9518 3.95368C1.88632 4.1263 1.83126 4.3391 1.78662 4.59208C1.74198 4.84505 1.71222 5.1516 1.69734 5.51172C1.68245 5.87184 1.67353 6.15904 1.67055 6.37333C1.66757 6.58761 1.66757 6.9016 1.67055 7.31529C1.67353 7.72898 1.67501 7.95666 1.67501 7.99833C1.67501 8.03999 1.67353 8.26767 1.67055 8.68136C1.66757 9.09505 1.66757 9.40904 1.67055 9.62333C1.67353 9.83761 1.68245 10.1248 1.69734 10.4849C1.71222 10.8451 1.74198 11.1516 1.78662 11.4046C1.83126 11.6576 1.88632 11.8703 1.9518 12.043C2.07085 12.3406 2.24347 12.6025 2.46966 12.8287C2.69585 13.0549 2.95775 13.2275 3.25537 13.3465C3.42799 13.412 3.64079 13.4671 3.89376 13.5117C4.14674 13.5564 4.45329 13.5861 4.81341 13.601C5.17353 13.6159 5.46073 13.6248 5.67501 13.6278C5.8893 13.6308 6.20329 13.6308 6.61698 13.6278C7.03067 13.6248 7.25835 13.6233 7.30001 13.6233C7.34168 13.6233 7.56936 13.6248 7.98305 13.6278C8.39674 13.6308 8.71073 13.6308 8.92501 13.6278C9.1393 13.6248 9.4265 13.6159 9.78662 13.601C10.1467 13.5861 10.4533 13.5564 10.7063 13.5117C10.9592 13.4671 11.172 13.412 11.3447 13.3465C11.6423 13.2275 11.9042 13.0549 12.1304 12.8287C12.3566 12.6025 12.5292 12.3406 12.6482 12.043C12.7137 11.8703 12.7688 11.6576 12.8134 11.4046C12.8581 11.1516 12.8878 10.8451 12.9027 10.4849C12.9176 10.1248 12.9265 9.83761 12.9295 9.62333C12.9325 9.40904 12.9325 9.09505 12.9295 8.68136C12.9265 8.26767 12.925 8.03999 12.925 7.99833C12.925 7.95666 12.9265 7.72898 12.9295 7.31529C12.9325 6.9016 12.9325 6.58761 12.9295 6.37333C12.9265 6.15904 12.9176 5.87184 12.9027 5.51172C12.8878 5.1516 12.8581 4.84505 12.8134 4.59208C12.7688 4.3391 12.7137 4.1263 12.6482 3.95368C12.5292 3.65606 12.3566 3.39416 12.1304 3.16797C11.9042 2.94178 11.6423 2.76916 11.3447 2.65011C11.172 2.58463 10.9592 2.52958 10.7063 2.48493C10.4533 2.44029 10.1467 2.41053 9.78662 2.39565C9.4265 2.38077 9.1393 2.37184 8.92501 2.36886C8.71073 2.36588 8.39674 2.36588 7.98305 2.36886ZM14.1125 5.16797C14.1423 5.69178 14.1572 6.63523 14.1572 7.99833C14.1572 9.36142 14.1423 10.3049 14.1125 10.8287C14.053 12.0668 13.6839 13.0251 13.0054 13.7037C12.3268 14.3823 11.3685 14.7513 10.1304 14.8108C9.60656 14.8406 8.66311 14.8555 7.30001 14.8555C5.93692 14.8555 4.99347 14.8406 4.46966 14.8108C3.23156 14.7513 2.27323 14.3823 1.59466 13.7037C0.916085 13.0251 0.547038 12.0668 0.487514 10.8287C0.457752 10.3049 0.442871 9.36142 0.442871 7.99833C0.442871 6.63523 0.457752 5.69178 0.487514 5.16797C0.547038 3.92987 0.916085 2.97154 1.59466 2.29297C2.27323 1.6144 3.23156 1.24535 4.46966 1.18583C4.99347 1.15606 5.93692 1.14118 7.30001 1.14118C8.66311 1.14118 9.60656 1.15606 10.1304 1.18583C11.3685 1.24535 12.3268 1.6144 13.0054 2.29297C13.6839 2.97154 14.053 3.92987 14.1125 5.16797Z" fill="white"/>
</g>
<defs>
<clipPath id="clip0_79_4643">
<rect width="13.72" height="16" fill="white" transform="matrix(1 0 0 -1 0.439941 16)"/>
</clipPath>
</defs>
</svg>
