<svg width="21" height="21" viewBox="0 0 21 21" fill="none" xmlns="http://www.w3.org/2000/svg">
<path d="M3.72998 10.9301V17.1597H6.69838V10.4293V8.67969H3.72998V10.9301Z" fill="white"/>
<path d="M5.21447 4.44141C4.92096 4.44141 4.63405 4.52844 4.39 4.69151C4.14596 4.85457 3.95575 5.08634 3.84343 5.3575C3.73111 5.62867 3.70172 5.92705 3.75898 6.21492C3.81624 6.50279 3.95758 6.76721 4.16512 6.97475C4.37266 7.18229 4.63709 7.32363 4.92496 7.38089C5.21282 7.43815 5.51121 7.40876 5.78237 7.29644C6.05354 7.18412 6.28531 6.99391 6.44837 6.74987C6.61143 6.50583 6.69847 6.21891 6.69847 5.92541C6.69847 5.53183 6.54212 5.15436 6.26382 4.87606C5.98551 4.59776 5.60805 4.44141 5.21447 4.44141Z" fill="white"/>
<path d="M16.3848 11.2833C16.1848 9.68329 15.4496 8.67969 13.2888 8.67969C12.0088 8.67969 11.1464 9.15569 10.7944 9.82409H10.758V8.67969H8.39404V17.1597H10.8648V12.9569C10.8648 11.8481 11.0744 10.7753 12.4452 10.7753C13.7964 10.7753 13.9048 12.0425 13.9048 13.0281V17.1597H16.4496V12.4997C16.453 12.0933 16.4314 11.687 16.3848 11.2833Z" fill="white"/>
</svg>
