<svg width="15" height="12" viewBox="0 0 15 12" fill="none" xmlns="http://www.w3.org/2000/svg">
<path d="M14.7155 1.64341C14.3167 2.22675 13.8345 2.72377 13.269 3.13449C13.275 3.21782 13.278 3.34282 13.278 3.50949C13.278 4.2833 13.1649 5.05562 12.9387 5.82645C12.7125 6.59728 12.3687 7.33687 11.9074 8.0452C11.4461 8.75353 10.897 9.38002 10.2601 9.92467C9.62321 10.4693 8.85535 10.9038 7.95654 11.2282C7.05773 11.5526 6.09642 11.7148 5.07261 11.7148C3.45952 11.7148 1.98333 11.2833 0.644043 10.4202C0.852376 10.444 1.08452 10.4559 1.34047 10.4559C2.67976 10.4559 3.87321 10.0452 4.92083 9.22377C4.29583 9.21187 3.7363 9.0199 3.24226 8.64788C2.74821 8.27586 2.40892 7.80115 2.2244 7.22377C2.42083 7.25353 2.60238 7.26841 2.76904 7.26841C3.025 7.26841 3.27797 7.23568 3.52797 7.1702C2.8613 7.0333 2.30922 6.70145 1.87172 6.17466C1.43422 5.64788 1.21547 5.03627 1.21547 4.33984V4.30413C1.62023 4.53032 2.05476 4.65234 2.51904 4.6702C2.12619 4.4083 1.81369 4.06603 1.58154 3.64341C1.3494 3.2208 1.23333 2.76246 1.23333 2.26841C1.23333 1.74461 1.36428 1.25949 1.62619 0.813058C2.34642 1.69996 3.22291 2.40978 4.25565 2.94252C5.28839 3.47526 6.39404 3.77139 7.57261 3.83091C7.525 3.60472 7.50119 3.38449 7.50119 3.1702C7.50119 2.37258 7.78244 1.69252 8.34494 1.13002C8.90744 0.567522 9.5875 0.286272 10.3851 0.286272C11.2184 0.286272 11.9208 0.589843 12.4923 1.19699C13.1411 1.07199 13.7512 0.839843 14.3226 0.500558C14.1024 1.18508 13.6798 1.71484 13.0548 2.08984C13.6083 2.03032 14.1619 1.88151 14.7155 1.64341Z" fill="white"/>
</svg>
