<svg width="21" height="21" viewBox="0 0 21 21" fill="none" xmlns="http://www.w3.org/2000/svg">
<path d="M8.89164 13.7969L14.0837 10.7856L8.89164 7.79768V13.7969ZM20.4477 5.97385C20.6036 6.5942 20.6972 7.22857 20.7271 7.86753C20.797 8.64362 20.828 9.35763 20.828 9.96299L20.8901 10.7856C20.9407 12.4068 20.7921 14.028 20.4477 15.613C20.3527 16.0336 20.1428 16.4196 19.8413 16.7279C19.5399 17.0362 19.1587 17.2548 18.7403 17.3592C17.869 17.5359 16.9828 17.6295 16.0938 17.6386C14.79 17.7084 13.6025 17.7395 12.5005 17.7395L10.9483 17.8016C6.76514 17.8016 4.14969 17.6386 3.12525 17.3592C2.69315 17.2702 2.29523 17.0603 1.97784 16.7539C1.66044 16.4475 1.43663 16.0572 1.33246 15.6285C1.17602 15.0056 1.08242 14.3686 1.05307 13.7271C0.98322 12.951 0.952176 12.2369 0.952176 11.6394L0.890088 10.7856C0.840759 9.16968 0.989321 7.55374 1.33246 5.97385C1.43184 5.55314 1.64638 5.16841 1.95205 4.86274C2.25772 4.55707 2.64245 4.34253 3.06316 4.24316C3.93386 4.06241 4.8204 3.96882 5.70965 3.96376C7.01349 3.89391 8.20091 3.86287 9.30297 3.86287L10.8552 3.80078C15.0461 3.80078 17.6615 3.96376 18.686 4.24316C19.1124 4.33739 19.5037 4.54964 19.8152 4.85568C20.1267 5.16171 20.3459 5.54919 20.4477 5.97385Z" fill="white"/>
</svg>
