<svg width="90" height="90" viewBox="0 0 90 90" fill="none" xmlns="http://www.w3.org/2000/svg">
<path d="M15 82.5C12.9375 82.5 11.1719 81.7656 9.70312 80.2969C8.23438 78.8281 7.5 77.0625 7.5 75V33.75C7.5 31.6875 8.23438 29.9219 9.70312 28.4531C11.1719 26.9844 12.9375 26.25 15 26.25H33.75V15C33.75 12.9375 34.4844 11.1719 35.9531 9.70312C37.4219 8.23438 39.1875 7.5 41.25 7.5H48.75C50.8125 7.5 52.5781 8.23438 54.0469 9.70312C55.5156 11.1719 56.25 12.9375 56.25 15V26.25H75C77.0625 26.25 78.8281 26.9844 80.2969 28.4531C81.7656 29.9219 82.5 31.6875 82.5 33.75V75C82.5 77.0625 81.7656 78.8281 80.2969 80.2969C78.8281 81.7656 77.0625 82.5 75 82.5H15ZM15 75H75V33.75H56.25C56.25 35.8125 55.5156 37.5781 54.0469 39.0469C52.5781 40.5156 50.8125 41.25 48.75 41.25H41.25C39.1875 41.25 37.4219 40.5156 35.9531 39.0469C34.4844 37.5781 33.75 35.8125 33.75 33.75H15V75ZM22.5 67.5H45V65.8125C45 64.75 44.7031 63.7656 44.1094 62.8594C43.5156 61.9531 42.6875 61.25 41.625 60.75C40.375 60.1875 39.1094 59.7656 37.8281 59.4844C36.5469 59.2031 35.1875 59.0625 33.75 59.0625C32.3125 59.0625 30.9531 59.2031 29.6719 59.4844C28.3906 59.7656 27.125 60.1875 25.875 60.75C24.8125 61.25 23.9844 61.9531 23.3906 62.8594C22.7969 63.7656 22.5 64.75 22.5 65.8125V67.5ZM52.5 61.875H67.5V56.25H52.5V61.875ZM33.75 56.25C35.3125 56.25 36.6406 55.7031 37.7344 54.6094C38.8281 53.5156 39.375 52.1875 39.375 50.625C39.375 49.0625 38.8281 47.7344 37.7344 46.6406C36.6406 45.5469 35.3125 45 33.75 45C32.1875 45 30.8594 45.5469 29.7656 46.6406C28.6719 47.7344 28.125 49.0625 28.125 50.625C28.125 52.1875 28.6719 53.5156 29.7656 54.6094C30.8594 55.7031 32.1875 56.25 33.75 56.25ZM52.5 50.625H67.5V45H52.5V50.625ZM41.25 33.75H48.75V15H41.25V33.75Z" fill="#404040"/>
</svg>
