<svg width="37" height="41" viewBox="0 0 37 41" fill="none" xmlns="http://www.w3.org/2000/svg">
<path d="M30.1667 12.6C30.1667 9.52349 28.9375 6.57298 26.7496 4.39756C24.5617 2.22214 21.5942 1 18.5 1C15.4058 1 12.4383 2.22214 10.2504 4.39756C8.0625 6.57298 6.83333 9.52349 6.83333 12.6C6.83333 26.1333 1 30 1 30H36C36 30 30.1667 26.1333 30.1667 12.6Z" stroke="black" stroke-width="2" stroke-linecap="round" stroke-linejoin="round"/>
<path d="M22 38C21.6443 38.6083 21.1338 39.1132 20.5195 39.4642C19.9053 39.8153 19.2089 40 18.5 40C17.7911 40 17.0947 39.8153 16.4805 39.4642C15.8662 39.1132 15.3557 38.6083 15 38" stroke="black" stroke-width="2" stroke-linecap="round" stroke-linejoin="round"/>
</svg>
