<svg width="101" height="101" viewBox="0 0 101 101" fill="none" xmlns="http://www.w3.org/2000/svg">
<path d="M21.0417 88.375C18.7271 88.375 16.7457 87.5509 15.0974 85.9026C13.4491 84.2543 12.625 82.2729 12.625 79.9583V21.0417C12.625 18.7271 13.4491 16.7457 15.0974 15.0974C16.7457 13.4491 18.7271 12.625 21.0417 12.625H79.9583C82.2729 12.625 84.2543 13.4491 85.9026 15.0974C87.5509 16.7457 88.375 18.7271 88.375 21.0417V79.9583C88.375 82.2729 87.5509 84.2543 85.9026 85.9026C84.2543 87.5509 82.2729 88.375 79.9583 88.375H21.0417ZM21.0417 21.0417V79.9583H79.9583V21.0417H71.5417V50.5L61.0208 44.1875L50.5 50.5V21.0417H21.0417Z" fill="#404040"/>
</svg>
