<svg width="15" height="14" viewBox="0 0 15 14" fill="none" xmlns="http://www.w3.org/2000/svg">
<path d="M8.97342 8.12891C8.97342 8.12891 9.03146 8.05673 9.14753 7.91239C9.2636 7.76804 9.36033 7.69587 9.43771 7.69587C9.51509 7.69587 9.80527 7.82682 10.3082 8.08873C10.8112 8.35063 11.0776 8.50837 11.1074 8.56194C11.1193 8.5917 11.1252 8.63635 11.1252 8.69587C11.1252 8.8923 11.0746 9.11849 10.9734 9.37444C10.8782 9.60658 10.6669 9.80153 10.3395 9.95926C10.0121 10.117 9.70854 10.1959 9.42878 10.1959C9.0895 10.1959 8.52402 10.0113 7.73235 9.6423C7.14902 9.37444 6.64307 9.02325 6.2145 8.58873C5.78592 8.1542 5.34545 7.60361 4.89307 6.93694C4.4645 6.30004 4.25319 5.72266 4.25914 5.2048V5.13337C4.277 4.5917 4.49723 4.12147 4.91985 3.72266C5.06271 3.5917 5.21747 3.52623 5.38414 3.52623C5.41985 3.52623 5.47342 3.53069 5.54485 3.53962C5.61628 3.54855 5.67283 3.55301 5.7145 3.55301C5.82759 3.55301 5.90646 3.57236 5.9511 3.61105C5.99575 3.64974 6.04188 3.73158 6.0895 3.85658C6.13711 3.97563 6.23533 4.23754 6.38414 4.6423C6.53295 5.04706 6.60735 5.27028 6.60735 5.31194C6.60735 5.43694 6.50467 5.60807 6.29932 5.82533C6.09396 6.0426 5.99128 6.18099 5.99128 6.24051C5.99128 6.28218 6.00616 6.32682 6.03592 6.37444C6.2383 6.80897 6.54188 7.2167 6.94664 7.59766C7.27997 7.91313 7.72938 8.21373 8.29485 8.49944C8.36628 8.54111 8.43176 8.56194 8.49128 8.56194C8.58057 8.56194 8.74128 8.4176 8.97342 8.12891ZM7.62521 12.428C8.38116 12.428 9.10586 12.2792 9.79932 11.9816C10.4928 11.684 11.0895 11.2852 11.5895 10.7852C12.0895 10.2852 12.4883 9.68843 12.7859 8.99498C13.0835 8.30153 13.2324 7.57682 13.2324 6.82087C13.2324 6.06492 13.0835 5.34022 12.7859 4.64676C12.4883 3.95331 12.0895 3.35658 11.5895 2.85658C11.0895 2.35658 10.4928 1.95778 9.79932 1.66016C9.10586 1.36254 8.38116 1.21373 7.62521 1.21373C6.86926 1.21373 6.14455 1.36254 5.4511 1.66016C4.75765 1.95778 4.16092 2.35658 3.66092 2.85658C3.16092 3.35658 2.76211 3.95331 2.4645 4.64676C2.16688 5.34022 2.01807 6.06492 2.01807 6.82087C2.01807 8.0292 2.37521 9.12444 3.0895 10.1066L2.38414 12.1869L4.54485 11.4994C5.48533 12.1185 6.51211 12.428 7.62521 12.428ZM5.0136 0.624441C5.0136 0.624441 5.22119 0.535155 5.63637 0.356585C6.05155 0.178013 6.7145 0.088727 7.62521 0.088727C8.53592 0.088727 9.40646 0.267299 10.2368 0.624441C11.0672 0.981585 11.7829 1.46075 12.3841 2.06194C12.9853 2.66313 13.4645 3.37891 13.8216 4.20926C14.1788 5.03962 14.3574 5.91016 14.3574 6.82087C14.3574 7.73158 14.1788 8.60212 13.8216 9.43248C13.4645 10.2628 12.9853 10.9786 12.3841 11.5798C11.7829 12.181 11.0672 12.6602 10.2368 13.0173C9.40646 13.3744 8.53592 13.553 7.62521 13.553C6.4645 13.553 5.37819 13.2733 4.36628 12.7137L0.643066 13.9102L1.85735 10.2941C1.2145 9.23456 0.893066 8.07682 0.893066 6.82087C0.893066 5.91016 1.07164 5.03962 1.42878 4.20926C1.78592 3.37891 2.26509 2.66313 2.86628 2.06194C3.46747 1.46075 4.18325 0.981585 5.0136 0.624441Z" fill="white"/>
</svg>
