<svg width="553" height="100" viewBox="0 0 553 100" fill="none" xmlns="http://www.w3.org/2000/svg">
<g clip-path="url(#clip0_129_137)">
<rect width="553" height="100" fill="white"/>
<rect width="553" height="100" fill="#D5D5D5"/>
<path d="M119.762 60V43.2H128.354C130.562 43.2 132.21 43.608 133.298 44.424C134.386 45.224 134.93 46.28 134.93 47.592C134.93 48.456 134.698 49.216 134.234 49.872C133.786 50.512 133.146 51.024 132.314 51.408C131.498 51.776 130.522 51.96 129.386 51.96L129.866 50.808C131.05 50.808 132.082 50.992 132.962 51.36C133.842 51.712 134.522 52.232 135.002 52.92C135.498 53.592 135.746 54.416 135.746 55.392C135.746 56.848 135.154 57.984 133.97 58.8C132.802 59.6 131.09 60 128.834 60H119.762ZM124.466 56.568H128.45C129.266 56.568 129.882 56.432 130.298 56.16C130.73 55.872 130.946 55.44 130.946 54.864C130.946 54.288 130.73 53.864 130.298 53.592C129.882 53.304 129.266 53.16 128.45 53.16H124.13V49.872H127.73C128.53 49.872 129.13 49.736 129.53 49.464C129.93 49.192 130.13 48.784 130.13 48.24C130.13 47.696 129.93 47.296 129.53 47.04C129.13 46.768 128.53 46.632 127.73 46.632H124.466V56.568ZM144.807 60.216C143.271 60.216 141.927 59.928 140.775 59.352C139.639 58.76 138.751 57.96 138.111 56.952C137.487 55.928 137.175 54.768 137.175 53.472C137.175 52.176 137.479 51.024 138.087 50.016C138.711 48.992 139.567 48.2 140.655 47.64C141.743 47.064 142.967 46.776 144.327 46.776C145.607 46.776 146.775 47.04 147.831 47.568C148.887 48.08 149.727 48.84 150.351 49.848C150.975 50.856 151.287 52.08 151.287 53.52C151.287 53.68 151.279 53.864 151.263 54.072C151.247 54.28 151.231 54.472 151.215 54.648H140.919V52.248H148.791L147.063 52.92C147.079 52.328 146.967 51.816 146.727 51.384C146.503 50.952 146.183 50.616 145.767 50.376C145.367 50.136 144.895 50.016 144.351 50.016C143.807 50.016 143.327 50.136 142.911 50.376C142.511 50.616 142.199 50.96 141.975 51.408C141.751 51.84 141.639 52.352 141.639 52.944V53.64C141.639 54.28 141.767 54.832 142.023 55.296C142.295 55.76 142.679 56.12 143.175 56.376C143.671 56.616 144.263 56.736 144.951 56.736C145.591 56.736 146.135 56.648 146.583 56.472C147.047 56.28 147.503 55.992 147.951 55.608L150.351 58.104C149.727 58.792 148.959 59.32 148.047 59.688C147.135 60.04 146.055 60.216 144.807 60.216ZM170.334 46.776C171.342 46.776 172.238 46.984 173.022 47.4C173.822 47.8 174.446 48.424 174.894 49.272C175.358 50.12 175.59 51.216 175.59 52.56V60H171.03V53.304C171.03 52.376 170.854 51.704 170.502 51.288C170.15 50.856 169.67 50.64 169.062 50.64C168.63 50.64 168.238 50.744 167.886 50.952C167.534 51.16 167.262 51.48 167.07 51.912C166.878 52.328 166.782 52.872 166.782 53.544V60H162.222V53.304C162.222 52.376 162.046 51.704 161.694 51.288C161.358 50.856 160.878 50.64 160.254 50.64C159.806 50.64 159.406 50.744 159.054 50.952C158.718 51.16 158.446 51.48 158.238 51.912C158.046 52.328 157.95 52.872 157.95 53.544V60H153.39V46.992H157.734V50.616L156.87 49.584C157.35 48.656 158.006 47.96 158.838 47.496C159.67 47.016 160.598 46.776 161.622 46.776C162.79 46.776 163.814 47.08 164.694 47.688C165.59 48.28 166.19 49.208 166.494 50.472L165.006 50.16C165.47 49.104 166.166 48.28 167.094 47.688C168.038 47.08 169.118 46.776 170.334 46.776ZM178.156 54.912V51.408H185.164V54.912H178.156ZM190.975 60L185.623 46.992H190.303L194.575 57.864H192.223L196.711 46.992H201.055L195.679 60H190.975ZM202.234 60V46.992H206.794V60H202.234ZM204.514 45.552C203.682 45.552 203.01 45.32 202.498 44.856C201.986 44.392 201.73 43.816 201.73 43.128C201.73 42.44 201.986 41.864 202.498 41.4C203.01 40.936 203.682 40.704 204.514 40.704C205.346 40.704 206.018 40.928 206.53 41.376C207.042 41.808 207.298 42.368 207.298 43.056C207.298 43.776 207.042 44.376 206.53 44.856C206.034 45.32 205.362 45.552 204.514 45.552ZM218.229 46.776C219.237 46.776 220.149 46.984 220.965 47.4C221.781 47.8 222.421 48.424 222.885 49.272C223.365 50.12 223.605 51.216 223.605 52.56V60H219.045V53.304C219.045 52.376 218.853 51.704 218.469 51.288C218.101 50.856 217.581 50.64 216.909 50.64C216.429 50.64 215.989 50.752 215.589 50.976C215.189 51.184 214.877 51.512 214.653 51.96C214.429 52.408 214.317 52.992 214.317 53.712V60H209.757V46.992H214.101V50.688L213.261 49.608C213.757 48.664 214.437 47.96 215.301 47.496C216.165 47.016 217.141 46.776 218.229 46.776ZM232.296 60.216C231.112 60.216 230.032 59.944 229.056 59.4C228.096 58.84 227.328 58.064 226.752 57.072C226.176 56.064 225.888 54.864 225.888 53.472C225.888 52.096 226.176 50.912 226.752 49.92C227.328 48.912 228.096 48.136 229.056 47.592C230.032 47.048 231.112 46.776 232.296 46.776C233.416 46.776 234.36 47.016 235.128 47.496C235.912 47.976 236.504 48.712 236.904 49.704C237.304 50.696 237.504 51.952 237.504 53.472C237.504 55.024 237.312 56.296 236.928 57.288C236.544 58.28 235.968 59.016 235.2 59.496C234.432 59.976 233.464 60.216 232.296 60.216ZM233.256 56.592C233.768 56.592 234.224 56.472 234.624 56.232C235.04 55.992 235.368 55.64 235.608 55.176C235.848 54.696 235.968 54.128 235.968 53.472C235.968 52.816 235.848 52.264 235.608 51.816C235.368 51.352 235.04 51 234.624 50.76C234.224 50.52 233.768 50.4 233.256 50.4C232.728 50.4 232.256 50.52 231.84 50.76C231.44 51 231.12 51.352 230.88 51.816C230.64 52.264 230.52 52.816 230.52 53.472C230.52 54.128 230.64 54.696 230.88 55.176C231.12 55.64 231.44 55.992 231.84 56.232C232.256 56.472 232.728 56.592 233.256 56.592ZM236.112 60V57.768L236.136 53.472L235.896 49.176V42.192H240.456V60H236.112ZM249.918 60.216C248.494 60.216 247.23 59.928 246.126 59.352C245.022 58.776 244.15 57.984 243.51 56.976C242.886 55.952 242.574 54.784 242.574 53.472C242.574 52.16 242.886 51 243.51 49.992C244.15 48.984 245.022 48.2 246.126 47.64C247.23 47.064 248.494 46.776 249.918 46.776C251.342 46.776 252.606 47.064 253.71 47.64C254.83 48.2 255.702 48.984 256.326 49.992C256.95 51 257.262 52.16 257.262 53.472C257.262 54.784 256.95 55.952 256.326 56.976C255.702 57.984 254.83 58.776 253.71 59.352C252.606 59.928 251.342 60.216 249.918 60.216ZM249.918 56.592C250.446 56.592 250.91 56.472 251.31 56.232C251.726 55.992 252.054 55.64 252.294 55.176C252.534 54.696 252.654 54.128 252.654 53.472C252.654 52.816 252.534 52.264 252.294 51.816C252.054 51.352 251.726 51 251.31 50.76C250.91 50.52 250.446 50.4 249.918 50.4C249.406 50.4 248.942 50.52 248.526 50.76C248.126 51 247.798 51.352 247.542 51.816C247.302 52.264 247.182 52.816 247.182 53.472C247.182 54.128 247.302 54.696 247.542 55.176C247.798 55.64 248.126 55.992 248.526 56.232C248.942 56.472 249.406 56.592 249.918 56.592ZM262.446 64.656C261.454 63.216 260.686 61.536 260.142 59.616C259.614 57.68 259.35 55.616 259.35 53.424C259.35 51.232 259.614 49.176 260.142 47.256C260.686 45.32 261.454 43.632 262.446 42.192H266.814C265.774 44.048 265.014 45.888 264.534 47.712C264.054 49.536 263.814 51.44 263.814 53.424C263.814 55.408 264.054 57.312 264.534 59.136C265.014 60.96 265.774 62.8 266.814 64.656H262.446ZM276.178 60V57.576L275.866 56.976V52.512C275.866 51.792 275.642 51.24 275.194 50.856C274.762 50.456 274.066 50.256 273.106 50.256C272.482 50.256 271.85 50.36 271.21 50.568C270.57 50.76 270.026 51.032 269.578 51.384L268.042 48.288C268.778 47.808 269.658 47.44 270.682 47.184C271.722 46.912 272.754 46.776 273.778 46.776C275.89 46.776 277.522 47.264 278.674 48.24C279.842 49.2 280.426 50.712 280.426 52.776V60H276.178ZM272.338 60.216C271.298 60.216 270.418 60.04 269.698 59.688C268.978 59.336 268.426 58.856 268.042 58.248C267.674 57.64 267.49 56.96 267.49 56.208C267.49 55.408 267.69 54.72 268.09 54.144C268.506 53.552 269.138 53.104 269.986 52.8C270.834 52.48 271.93 52.32 273.274 52.32H276.346V54.696H273.898C273.162 54.696 272.642 54.816 272.338 55.056C272.05 55.296 271.906 55.616 271.906 56.016C271.906 56.416 272.058 56.736 272.362 56.976C272.666 57.216 273.082 57.336 273.61 57.336C274.106 57.336 274.554 57.216 274.954 56.976C275.37 56.72 275.674 56.336 275.866 55.824L276.49 57.504C276.25 58.4 275.778 59.08 275.074 59.544C274.386 59.992 273.474 60.216 272.338 60.216ZM286.16 64.656H281.792C282.848 62.8 283.608 60.96 284.072 59.136C284.552 57.312 284.792 55.408 284.792 53.424C284.792 51.44 284.552 49.536 284.072 47.712C283.608 45.888 282.848 44.048 281.792 42.192H286.16C287.168 43.632 287.936 45.32 288.464 47.256C288.992 49.176 289.256 51.232 289.256 53.424C289.256 55.616 288.992 57.68 288.464 59.616C287.936 61.536 287.168 63.216 286.16 64.656ZM292.499 53.88L291.611 43.2H297.035L296.123 53.88H292.499ZM294.323 60.216C293.523 60.216 292.867 59.968 292.355 59.472C291.843 58.976 291.587 58.384 291.587 57.696C291.587 56.992 291.843 56.408 292.355 55.944C292.867 55.464 293.523 55.224 294.323 55.224C295.123 55.224 295.771 55.464 296.267 55.944C296.779 56.408 297.035 56.992 297.035 57.696C297.035 58.384 296.779 58.976 296.267 59.472C295.771 59.968 295.123 60.216 294.323 60.216Z" fill="#333333"/>
<rect x="19.5" y="20.5" width="70" height="70" rx="5.5" stroke="#B91D32"/>
<path d="M78.1667 82.125V76.2083C78.1667 73.0699 76.92 70.0601 74.7008 67.8409C72.4816 65.6217 69.4717 64.375 66.3333 64.375H42.6667C39.5283 64.375 36.5184 65.6217 34.2992 67.8409C32.0801 70.0601 30.8333 73.0699 30.8333 76.2083V82.125" stroke="#333333" stroke-width="3" stroke-linecap="round" stroke-linejoin="round"/>
<path d="M54.5 52.5417C61.0354 52.5417 66.3333 47.2437 66.3333 40.7083C66.3333 34.173 61.0354 28.875 54.5 28.875C47.9646 28.875 42.6667 34.173 42.6667 40.7083C42.6667 47.2437 47.9646 52.5417 54.5 52.5417Z" stroke="#333333" stroke-width="3" stroke-linecap="round" stroke-linejoin="round"/>
</g>
<defs>
<clipPath id="clip0_129_137">
<rect width="553" height="100" fill="white"/>
</clipPath>
</defs>
</svg>
