<svg width="371" height="95" viewBox="0 0 371 95" fill="none" xmlns="http://www.w3.org/2000/svg">
<g clip-path="url(#clip0_129_127)">
<rect width="371" height="95" fill="white"/>
<mask id="mask0_129_127" style="mask-type:luminance" maskUnits="userSpaceOnUse" x="0" y="0" width="372" height="95">
<path d="M371.364 0H0V95H371.364V0Z" fill="white"/>
</mask>
<g mask="url(#mask0_129_127)">
<path d="M371.364 0H0V95H371.364V0Z" fill="#FF0000"/>
</g>
<mask id="mask1_129_127" style="mask-type:luminance" maskUnits="userSpaceOnUse" x="0" y="0" width="372" height="95">
<path d="M371.364 0H0V95H371.364V0Z" fill="white"/>
</mask>
<g mask="url(#mask1_129_127)">
<path d="M0 81.187H19.9749V78.6499H0V81.187ZM0 65.1188H19.9749V62.5817H0V65.1188ZM0 48.4867H19.9749V45.9496H0V48.4867ZM0 32.1366H19.9749V29.5995H0V32.1366ZM0 16.0683H19.9749V13.5312H0V16.0683Z" fill="white"/>
</g>
<mask id="mask2_129_127" style="mask-type:luminance" maskUnits="userSpaceOnUse" x="0" y="0" width="372" height="95">
<path d="M371.364 0H0V95H371.364V0Z" fill="white"/>
</mask>
<g mask="url(#mask2_129_127)">
<path d="M351.671 81.187H371.364V78.6499H351.671V81.187ZM351.671 65.1188H371.364V62.5817H351.671V65.1188ZM351.671 48.4867H371.364V45.9496H351.671V48.4867ZM351.671 32.1366H371.364V29.5995H351.671V32.1366ZM351.671 16.0683H371.364V13.5312H351.671V16.0683Z" fill="white"/>
</g>
<mask id="mask3_129_127" style="mask-type:luminance" maskUnits="userSpaceOnUse" x="0" y="0" width="372" height="95">
<path d="M371.364 0H0V95H371.364V0Z" fill="white"/>
</mask>
<g mask="url(#mask3_129_127)">
<mask id="mask4_129_127" style="mask-type:luminance" maskUnits="userSpaceOnUse" x="0" y="0" width="372" height="95">
<path d="M371.364 0H0V95H371.364V0Z" fill="white"/>
</mask>
<g mask="url(#mask4_129_127)">
<path fill-rule="evenodd" clip-rule="evenodd" d="M330.289 81.1831L344.637 13.5273H325.787L311.439 81.1831H330.289ZM261.643 54.6846L276.835 26.4947H277.116L279.648 54.6846H261.643ZM247.013 81.1831L254.328 67.9338H281.899L283.587 81.1831H304.687L292.308 13.5273H269.52L228.164 81.1831H247.013ZM155.298 81.1831H172.178L183.15 29.3137H183.431L195.247 81.1831H221.13L235.479 13.5273H218.598L207.908 63.7054V63.9873L195.81 13.5273H169.646L155.298 81.1831ZM144.888 81.1831L147.702 67.9338H114.785L117.88 53.557H147.983L150.796 40.3077H120.693L123.788 26.2128H156.423L159.236 12.9635H107.752L93.4036 80.6193H144.888V81.1831ZM90.5903 33.2603C95.0916 16.9101 81.8688 11.8359 68.0834 11.8359C54.0165 11.8359 38.8244 16.3463 34.8857 32.4146C33.479 39.7439 35.4483 45.9457 41.6377 49.0466C54.8605 55.5303 69.2087 53.557 67.2393 62.8597C66.3953 67.3701 60.2059 69.6252 55.9859 69.6252C49.2338 69.6252 45.2951 66.2425 46.7018 59.7588H27.8523C24.1949 78.0822 37.1364 82.8745 52.8912 82.8745C68.646 82.8745 84.1195 76.1089 86.9329 61.7321C90.8716 43.4086 74.5541 42.281 63.8633 39.462C59.0806 38.0526 53.4539 36.6431 54.5792 31.5689C55.4232 28.1861 59.6433 25.3671 63.8633 25.3671C66.958 25.3671 69.2087 26.2128 70.6154 27.6223C72.0221 29.0318 72.3034 31.0051 71.7407 33.5422H90.5903V33.2603Z" fill="white"/>
</g>
</g>
</g>
<defs>
<clipPath id="clip0_129_127">
<rect width="371" height="95" fill="white"/>
</clipPath>
</defs>
</svg>
